<svg width="80" height="80" viewBox="0 0 80 80" fill="none" xmlns="http://www.w3.org/2000/svg">
<circle cx="40" cy="40" r="40" fill="#3FB5ED" fill-opacity="0.8"/>
<path d="M35 50C34.0833 50 33.2989 49.6739 32.6467 49.0216C31.9944 48.3694 31.6678 47.5844 31.6667 46.6666V26.6666C31.6667 25.75 31.9933 24.9655 32.6467 24.3133C33.3 23.6611 34.0844 23.3344 35 23.3333H50C50.9167 23.3333 51.7017 23.66 52.355 24.3133C53.0083 24.9666 53.3344 25.7511 53.3333 26.6666V46.6666C53.3333 47.5833 53.0072 48.3683 52.355 49.0216C51.7028 49.675 50.9178 50.0011 50 50H35ZM35 46.6666H50V26.6666H35V46.6666ZM28.3333 56.6666C27.4167 56.6666 26.6322 56.3405 25.98 55.6883C25.3278 55.0361 25.0011 54.2511 25 53.3333V31.6666C25 31.1944 25.16 30.7989 25.48 30.48C25.8 30.1611 26.1956 30.0011 26.6667 30C27.1378 29.9989 27.5339 30.1589 27.855 30.48C28.1761 30.8011 28.3356 31.1966 28.3333 31.6666V53.3333H45C45.4722 53.3333 45.8683 53.4933 46.1883 53.8133C46.5083 54.1333 46.6678 54.5289 46.6667 55C46.6656 55.4711 46.5056 55.8672 46.1867 56.1883C45.8678 56.5094 45.4722 56.6689 45 56.6666H28.3333Z" fill="white"/>
</svg>
