<svg width="80" height="80" viewBox="0 0 80 80" fill="none" xmlns="http://www.w3.org/2000/svg">
<circle cx="40" cy="40" r="40" fill="#3FB5ED" fill-opacity="0.8"/>
<path d="M38.3335 43.6667V30C38.3335 29.5278 38.4935 29.1322 38.8135 28.8133C39.1335 28.4944 39.5291 28.3344 40.0002 28.3333C40.4713 28.3322 40.8674 28.4922 41.1885 28.8133C41.5096 29.1344 41.6691 29.53 41.6668 30V43.6667L46.5002 38.8333C46.8057 38.5278 47.1946 38.375 47.6668 38.375C48.1391 38.375 48.5279 38.5278 48.8335 38.8333C49.139 39.1389 49.2918 39.5278 49.2918 40C49.2918 40.4722 49.139 40.8611 48.8335 41.1667L41.1668 48.8333C40.8335 49.1667 40.4446 49.3333 40.0002 49.3333C39.5557 49.3333 39.1668 49.1667 38.8335 48.8333L31.1668 41.1667C30.8613 40.8611 30.7085 40.4722 30.7085 40C30.7085 39.5278 30.8613 39.1389 31.1668 38.8333C31.4724 38.5278 31.8613 38.375 32.3335 38.375C32.8057 38.375 33.1946 38.5278 33.5002 38.8333L38.3335 43.6667Z" fill="white"/>
</svg>
