<svg width="24" height="24" viewBox="0 0 24 24" fill="none" xmlns="http://www.w3.org/2000/svg">
<path fill-rule="evenodd" clip-rule="evenodd" d="M12 0C5.37187 0 0 5.37187 0 12C0 18.6281 5.37187 24 12 24C18.6281 24 24 18.6281 24 12C24 5.37187 18.6281 0 12 0ZM11.0625 5.41406C11.0625 4.89609 11.482 4.47656 12 4.47656C12.518 4.47656 12.9375 4.89609 12.9375 5.41406V14.0625C12.9375 14.5805 12.518 15 12 15C11.482 15 11.0625 14.5805 11.0625 14.0625V5.41406ZM10.9453 17.5547C10.9453 18.1383 11.4164 18.6094 12 18.6094C12.5836 18.6094 13.0547 18.1359 13.0547 17.5547C13.0547 16.9711 12.5836 16.5 12 16.5C11.4164 16.5 10.9453 16.9711 10.9453 17.5547Z" fill="#F2472B"/>
</svg>
