<svg width="40" height="40" viewBox="0 0 40 40" fill="none" xmlns="http://www.w3.org/2000/svg">
<path d="M19.9999 36.6667C17.6944 36.6667 15.5277 36.2289 13.4999 35.3534C11.4721 34.4778 9.70825 33.2906 8.20825 31.7917C6.70825 30.2928 5.52103 28.5289 4.64659 26.5C3.77214 24.4712 3.33437 22.3045 3.33325 20C3.33214 17.6956 3.76992 15.5289 4.64659 13.5C5.52325 11.4712 6.71048 9.70726 8.20825 8.20837C9.70603 6.70949 11.4699 5.52226 13.4999 4.64671C15.5299 3.77115 17.6966 3.33337 19.9999 3.33337C21.3333 3.33337 22.6321 3.48615 23.8966 3.79171C25.161 4.09726 26.376 4.54171 27.5416 5.12504C27.9583 5.34726 28.2294 5.6806 28.3549 6.12504C28.4805 6.56948 28.4038 6.98615 28.1249 7.37504C27.846 7.76393 27.4777 8.01393 27.0199 8.12504C26.5621 8.23615 26.111 8.1806 25.6666 7.95837C24.7777 7.54171 23.8538 7.22226 22.8949 7.00004C21.936 6.77782 20.971 6.66671 19.9999 6.66671C16.3055 6.66671 13.1594 7.9656 10.5616 10.5634C7.96381 13.1612 6.66548 16.3067 6.66659 20C6.6677 23.6934 7.96659 26.8395 10.5633 29.4384C13.1599 32.0373 16.3055 33.3356 19.9999 33.3334C23.6944 33.3312 26.8405 32.0328 29.4383 29.4384C32.036 26.8439 33.3344 23.6978 33.3333 20C33.3333 19.7778 33.3266 19.5628 33.3133 19.355C33.2999 19.1473 33.2788 18.9317 33.2499 18.7084C33.1944 18.2362 33.2849 17.785 33.5216 17.355C33.7583 16.925 34.1121 16.64 34.5833 16.5C35.0277 16.3612 35.4444 16.4028 35.8333 16.625C36.2221 16.8473 36.4444 17.1806 36.4999 17.625C36.5555 18.0139 36.5971 18.4028 36.6249 18.7917C36.6527 19.1806 36.6666 19.5834 36.6666 20C36.6666 22.3056 36.2288 24.4723 35.3533 26.5C34.4777 28.5278 33.2905 30.2917 31.7916 31.7917C30.2927 33.2917 28.5288 34.4795 26.4999 35.355C24.471 36.2306 22.3044 36.6678 19.9999 36.6667ZM17.6666 23L33.1666 7.45837C33.4721 7.15282 33.8544 6.99282 34.3133 6.97837C34.7721 6.96393 35.1677 7.12393 35.4999 7.45837C35.8055 7.76393 35.9583 8.15282 35.9583 8.62504C35.9583 9.09726 35.8055 9.48615 35.4999 9.79171L18.8333 26.5C18.4999 26.8334 18.111 27 17.6666 27C17.2221 27 16.8333 26.8334 16.4999 26.5L11.7499 21.75C11.4444 21.4445 11.2916 21.0556 11.2916 20.5834C11.2916 20.1112 11.4444 19.7223 11.7499 19.4167C12.0555 19.1112 12.4444 18.9584 12.9166 18.9584C13.3888 18.9584 13.7777 19.1112 14.0833 19.4167L17.6666 23Z" fill="white"/>
</svg>
