<svg width="80" height="80" viewBox="0 0 80 80" fill="none" xmlns="http://www.w3.org/2000/svg">
<circle cx="40" cy="40" r="40" fill="#3FB5ED" fill-opacity="0.8"/>
<path d="M28.3333 55C27.4167 55 26.6322 54.6739 25.98 54.0217C25.3278 53.3695 25.0011 52.5845 25 51.6667V28.3334C25 27.4167 25.3267 26.6322 25.98 25.98C26.6333 25.3278 27.4178 25.0011 28.3333 25H35.2917C35.5972 24.0278 36.1944 23.2295 37.0833 22.605C37.9722 21.9806 38.9444 21.6678 40 21.6667C41.1111 21.6667 42.1044 21.9795 42.98 22.605C43.8556 23.2306 44.4456 24.0289 44.75 25H51.6667C52.5833 25 53.3683 25.3267 54.0217 25.98C54.675 26.6334 55.0011 27.4178 55 28.3334V51.6667C55 52.5834 54.6739 53.3684 54.0217 54.0217C53.3694 54.675 52.5844 55.0011 51.6667 55H28.3333ZM28.3333 51.6667H51.6667V28.3334H48.3333V33.3334H31.6667V28.3334H28.3333V51.6667ZM40 28.3334C40.4722 28.3334 40.8683 28.1734 41.1883 27.8534C41.5083 27.5334 41.6678 27.1378 41.6667 26.6667C41.6656 26.1956 41.5056 25.8 41.1867 25.48C40.8678 25.16 40.4722 25 40 25C39.5278 25 39.1322 25.16 38.8133 25.48C38.4944 25.8 38.3344 26.1956 38.3333 26.6667C38.3322 27.1378 38.4922 27.5339 38.8133 27.855C39.1344 28.1761 39.53 28.3356 40 28.3334Z" fill="white"/>
</svg>
