<svg width="4096" height="864" viewBox="0 0 4096 864" fill="none" xmlns="http://www.w3.org/2000/svg">
<path d="M0 809.704C0 809.704 295.637 723.009 486.5 680.252C683.723 636.07 794.5 608.795 993.5 588.526C1181.91 569.336 1288.41 560.437 1477 575.211C1691.27 591.996 1809.04 639.539 2021.5 683.95C2272.48 736.414 2410.94 793.324 2663.5 825.238C2822.62 845.345 2912.37 845.955 3072 852.978C3271.87 861.771 3384.12 868.561 3584 860.19C3742.37 853.557 3831.15 845.342 3989 825.238C4030.81 819.913 4096 810.443 4096 810.443V0.44339H0V809.704Z" fill="white" fill-opacity="0.35"/>
<path d="M0 691.348C0 691.348 295.637 604.653 486.5 561.896C683.723 517.714 794.5 490.439 993.5 470.17C1181.91 450.98 1288.41 442.081 1477 456.855C1691.27 473.64 1809.04 521.183 2021.5 565.594C2272.48 618.058 2410.94 674.968 2663.5 706.882C2822.62 726.989 2912.37 727.599 3072 734.622C3271.87 743.415 3384.12 750.205 3584 741.834C3742.37 735.201 3831.15 726.986 3989 706.882C4030.81 701.557 4096 692.087 4096 692.087V0.000227928H0V691.348Z" fill="white" fill-opacity="0.8"/>
<path d="M0 572.991C0 572.991 295.637 486.296 486.5 443.539C683.723 399.357 794.5 372.082 993.5 351.813C1181.91 332.623 1288.41 323.724 1477 338.498C1691.27 355.284 1809.04 402.827 2021.5 447.238C2272.48 499.702 2410.94 556.611 2663.5 588.526C2822.62 608.632 2912.37 609.242 3072 616.265C3271.87 625.059 3384.12 631.849 3584 623.478C3742.37 616.845 3831.15 608.629 3989 588.526C4030.81 583.2 4096 573.731 4096 573.731V-5.62668e-05H0V572.991Z" fill="white"/>
</svg>
