<?xml version="1.0" encoding="UTF-8"?>
<svg id="Layer_1" data-name="Layer 1" xmlns="http://www.w3.org/2000/svg" viewBox="0 0 4096 584">
  <defs>
    <style>
      .cls-1 {
        fill: #fff;
      }

      .cls-2 {
        fill: rgba(255, 255, 255, .8);
      }

      .cls-3 {
        fill: rgba(255, 255, 255, .35);
      }
    </style>
  </defs>
  <path class="cls-3" d="M4096,36.7s-295.64,58.6-486.5,87.5c-197.22,29.86-308,48.3-507,62-188.41,12.97-294.91,18.99-483.5,9-214.27-11.35-332.04-43.48-544.5-73.5-250.98-35.46-389.44-73.93-642-95.5-159.12-13.59-248.87-14-408.5-18.75C824.13,1.51,711.88-3.08,512,2.58,353.63,7.06,264.85,12.61,107,26.2,65.19,29.8,0,36.2,0,36.2V583.7H4096V36.7Z"/>
  <path class="cls-2" d="M4096,116.7s-295.64,58.6-486.5,87.5c-197.22,29.86-308,48.3-507,62-188.41,12.97-294.91,18.99-483.5,9-214.27-11.35-332.04-43.48-544.5-73.5-250.98-35.46-389.44-73.93-642-95.5-159.12-13.59-248.87-14-408.5-18.75-199.87-5.94-312.12-10.53-512-4.88-158.37,4.48-247.15,10.04-405,23.62C65.19,109.8,0,116.2,0,116.2v467.8H4096V116.7Z"/>
  <path class="cls-1" d="M4096,196.7s-295.64,58.6-486.5,87.5c-197.22,29.86-308,48.3-507,62-188.41,12.97-294.91,18.99-483.5,9-214.27-11.35-332.04-43.48-544.5-73.5-250.98-35.46-389.44-73.93-642-95.5-159.12-13.59-248.87-14-408.5-18.75-199.87-5.94-312.12-10.53-512-4.88-158.37,4.48-247.15,10.04-405,23.62-41.81,3.6-107,10-107,10v387.8H4096V196.7Z"/>
</svg>